# xmcd
#
# Track frame offsets:
#	182
#	14855
#	28677
#	41950
#	55577
#	66922
#	79112
#	88570
#	102747
#	116290
#
# Disc length: 1685 seconds
#
# Revision: 1
# Processed by: cddbd v1.5.2PL0 Copyright (c) Steve Scherf et al.
# Submitted via: audiograbber 1.83.01
#
DISCID=8506930a
DTITLE=Various Artist - Honky Tonk Country
DYEAR=1991
DGENRE=Country
TTITLE0=Randy Travis - There'll Always Be A Honky Tonk Somewhere
TTITLE1=Dwight Yoakam - It Won't Hurt
TTITLE2=KD Lang, Brenda Lee, Loretta Lynn and Kitty Wells - Honky Tonk Angels Med
TTITLE2=ley
TTITLE3=Gene Watson - The Jukebox Played Along
TTITLE4=John Anderson - Let Somebody Else Drive
TTITLE5=Johnny Lee - Hey Bartender
TTITLE6=Gary Morris - Moonshine
TTITLE7=Emmylou Harris - Two More Bottles Of Wine
TTITLE8=Jerry Lee Lewis - Honky Tonk Stuff
TTITLE9=Pinkard and Bowden - Help Me Make It Through The Yard
EXTD=
EXTT0=
EXTT1=
EXTT2=
EXTT3=
EXTT4=
EXTT5=
EXTT6=
EXTT7=
EXTT8=
EXTT9=
PLAYORDER=
